<?xml version="1.0" encoding="UTF-8"?>
<svg width="500" height="80" viewBox="0 0 500 80" xmlns="http://www.w3.org/2000/svg">
    <!-- Líneas topográficas (más grandes) -->
    <path d="M 10 40 Q 55 10, 110 18 T 215 28 T 320 40" fill="none" stroke="#1e40af" stroke-width="3" opacity="0.3"/>
    <path d="M 20 40 Q 65 20, 110 26 T 205 32 T 310 40" fill="none" stroke="#1e40af" stroke-width="3" opacity="0.5"/>
    <path d="M 30 40 Q 75 28, 110 32 T 195 36 T 300 40" fill="none" stroke="#2563eb" stroke-width="3.5" opacity="0.7"/>
    <path d="M 40 40 Q 85 34, 110 36 T 185 38 T 290 40" fill="none" stroke="#3b82f6" stroke-width="3.5" opacity="0.85"/>
    <path d="M 50 40 Q 90 38, 110 38 T 175 39 T 280 40" fill="none" stroke="#60a5fa" stroke-width="4" opacity="1"/>
    
    <!-- Punto de referencia (más grande) -->
    <circle cx="110" cy="36" r="7" fill="#ef4444" opacity="0.8"/>
    <circle cx="110" cy="36" r="3.5" fill="#fff"/>
    
    <!-- Texto PLANARIS -->
    <text x="180" y="50" font-family="Arial, sans-serif" font-size="42" font-weight="700" fill="#1e293b" letter-spacing="2">PLANARIS</text>
    
    <!-- Subtítulo -->
    <text x="180" y="68" font-family="Arial, sans-serif" font-size="12" fill="#64748b" letter-spacing="3">TOPOGRAFÍA</text>
</svg>