<?xml version="1.0" encoding="UTF-8"?>
<!DOCTYPE svg PUBLIC "-//W3C//DTD SVG 1.1//EN" "http://www.w3.org/Graphics/SVG/1.1/DTD/svg11.dtd">
<!-- Creator: CorelDRAW -->
<svg xmlns="http://www.w3.org/2000/svg" xml:space="preserve" width="80mm" height="20mm" version="1.1" style="shape-rendering:geometricPrecision; text-rendering:geometricPrecision; image-rendering:optimizeQuality; fill-rule:evenodd; clip-rule:evenodd"
viewBox="0 0 8000 2000"
 xmlns:xlink="http://www.w3.org/1999/xlink"
 xmlns:xodm="http://www.corel.com/coreldraw/odm/2003">
 <defs>
  <style type="text/css">
   <![CDATA[
    .fil0 {fill:#273548}
    .fil1 {fill:#1AACBE;fill-rule:nonzero}
   ]]>
  </style>
 </defs>
 <g id="Capa_x0020_1">
  <metadata id="CorelCorpID_0Corel-Layer"/>
  <path class="fil0" d="M231.23 422.52l160.87 0 -160.87 0zm0 0l0 -155.5 573.76 0c45.58,0 88.48,7.59 128.7,22.79 40.21,15.19 74.84,36.86 103.89,65.01 29.04,28.15 51.61,61.67 67.7,100.54 16.08,38.88 24.13,81.11 24.13,126.69 0,33.96 -5.36,69.04 -16.09,105.23 -10.72,36.2 -30.83,71.72 -60.32,106.58 -29.5,34.85 -66.81,60.99 -111.94,78.42 -45.13,17.43 -90.5,26.14 -136.07,26.14l-414.13 0 0 -144.78 415.47 0c21.45,0 44.91,-5.15 70.38,-15.42 25.46,-10.27 46.92,-29.04 64.35,-56.3 17.43,-27.26 26.14,-58.76 26.14,-94.51 0,-49.15 -14.97,-88.92 -44.91,-119.31 -29.94,-30.39 -68.59,-45.58 -115.96,-45.58l-358.62 0 -216.48 0z"/>
  <path class="fil0" d="M392.1 753.64l-160.87 0 0 384.74 160.87 0 0 -384.74zm1603.31 384.74l-742.67 0 0 -871.36 162.21 0 0 715.86 580.46 0 0 155.5zm1183.71 0l-175.61 0 -89.82 -160.87 -489.3 0 71.05 -131.37 344.52 0 -218.51 -394.13 -380.72 686.37 -178.29 0 465.17 -825.78c8.05,-14.3 18.77,-25.48 32.18,-33.52 13.4,-8.04 27.7,-12.06 42.89,-12.06l37.54 0c15.19,0 29.27,4.02 42.23,12.06 12.96,8.04 23.46,19.22 31.5,33.52l465.17 825.78zm954.48 0l-33.51 0c-15.2,0 -29.05,-2.68 -41.56,-8.04 -12.51,-5.37 -29.49,-19.66 -50.94,-42.9l-573.76 -603.25 0 654.19 -156.85 0 0 -803c0,-21.44 6.48,-38.2 19.44,-50.27 12.96,-12.06 31.5,-18.09 55.63,-18.09l38.88 0c17.87,0 34.18,2.45 48.93,7.37 14.75,4.91 31.06,17.2 48.93,36.86l546.95 575.1 0 -619.33 156.84 0 0 809.69c0,41.11 -19.66,61.67 -58.98,61.67zm2325.87 0l-211.81 0 -193.04 -245.32 -308.33 0 0 -142.1 351.23 0c47.37,0 85.8,-15.19 115.29,-45.58 29.49,-30.39 44.24,-70.16 44.24,-119.31 0,-22.34 -4.92,-46.47 -14.75,-72.39 -9.83,-25.92 -27.93,-47.59 -54.29,-65.02 -26.37,-17.43 -56.53,-26.14 -90.49,-26.14l-433 0 0 715.86 -160.87 0 0 -871.36 593.87 0c45.58,0 88.25,7.59 128.02,22.79 39.77,15.19 73.96,36.64 102.56,64.34 28.6,27.71 50.94,61 67.02,99.87 16.09,38.88 24.13,80.66 24.13,125.35 0,66.13 -16.75,124.67 -50.27,175.61 -33.51,50.94 -78.42,88.48 -134.72,112.61l225.21 270.79zm253.37 0l-162.21 0 0 -871.36 162.21 0 0 871.36zm788.25 0l-654.2 0 0 -155.5 647.49 0c30.39,0 55.41,-10.06 75.08,-30.17 19.66,-20.11 29.49,-46.69 29.49,-79.76 0,-33.07 -9.83,-59.66 -29.49,-79.76 -19.67,-20.11 -44.69,-30.17 -75.08,-30.17l-403.5 0c-26.82,0 -54.74,-4.02 -83.79,-12.06 -29.05,-8.05 -57.64,-23.24 -85.8,-45.58 -28.15,-22.34 -49.37,-50.72 -63.67,-85.13 -14.3,-34.4 -21.45,-69.48 -21.45,-105.23 0,-73.28 23.91,-132.94 71.72,-178.97 47.81,-46.02 108.81,-69.03 182.99,-69.03l658.21 0 0 155.5 -651.51 0c-29.49,0 -53.4,9.38 -71.72,28.15 -18.32,18.77 -27.48,44.24 -27.48,76.41 0,31.28 9.16,56.53 27.48,75.75 18.32,19.21 42.23,28.82 71.72,28.82l403.51 0c36.64,0 69.04,5.36 97.19,16.09 28.15,10.72 53.4,25.02 75.74,42.89 22.34,17.88 42.45,43.35 60.32,76.41 17.88,33.07 26.82,72.4 26.82,117.97 0,36.65 -5.59,68.82 -16.76,96.52 -11.17,27.71 -25.92,52.29 -44.24,73.74 -18.32,21.44 -44.46,40.66 -78.42,57.64 -33.96,16.98 -74.18,25.47 -120.65,25.47z"/>
  <path class="fil1" d="M5405.79 1138.38l-175.61 0 -89.82 -160.87 -489.3 0 71.05 -131.37 344.52 0 -218.51 -394.13 -380.72 686.37 -178.29 0 465.17 -825.78c8.05,-14.3 18.77,-25.48 32.18,-33.52 13.4,-8.04 27.7,-12.06 42.89,-12.06l37.54 0c15.19,0 29.27,4.02 42.23,12.06 12.96,8.04 23.46,19.22 31.5,33.52l465.17 825.78z"/>
  <path class="fil0" d="M875.42 1740.58l-206.58 0 0 -60.18 204.47 0c9.59,0 17.5,-3.88 23.7,-11.66 6.21,-7.78 9.32,-18.08 9.32,-30.87 0,-12.79 -3.11,-23.09 -9.32,-30.87 -6.2,-7.78 -14.11,-11.66 -23.7,-11.66l-127.42 0c-8.47,0 -17.29,-1.56 -26.46,-4.67 -9.17,-3.11 -18.21,-8.99 -27.1,-17.65 -8.89,-8.63 -15.59,-19.61 -20.1,-32.93 -4.52,-13.31 -6.78,-26.89 -6.78,-40.72 0,-28.36 7.55,-51.44 22.65,-69.25 15.1,-17.81 34.36,-26.71 57.79,-26.71l207.85 0 0 60.17 -205.74 0c-9.31,0 -16.86,3.63 -22.65,10.89 -5.78,7.26 -8.67,17.12 -8.67,29.57 0,12.1 2.89,21.87 8.67,29.31 5.79,7.44 13.34,11.15 22.65,11.15l127.42 0c11.58,0 21.81,2.07 30.7,6.22 8.89,4.16 16.86,9.68 23.91,16.61 7.06,6.91 13.41,16.77 19.05,29.56 5.65,12.8 8.47,28.02 8.47,45.65 0,14.18 -1.76,26.63 -5.29,37.35 -3.53,10.72 -8.19,20.23 -13.97,28.52 -5.79,8.31 -14.04,15.74 -24.77,22.32 -10.72,6.57 -23.42,9.85 -38.1,9.85zm246.81 -60.18l45.3 0c9.03,0 18.48,-1.73 28.36,-5.18 9.88,-3.46 19.61,-10.11 29.21,-19.97 9.59,-9.86 16.79,-22.31 21.59,-37.35 4.8,-15.04 7.19,-30.34 7.19,-45.9 0,-11.77 -1.41,-23.88 -4.23,-36.32 -2.82,-12.45 -8.18,-24.63 -16.09,-36.57 -7.9,-11.93 -17.85,-20.83 -29.84,-26.71 -11.99,-5.88 -24.06,-8.82 -36.19,-8.82l-45.3 0c-12.14,0 -23.57,2.59 -34.29,7.78 -10.73,5.19 -19.97,12.62 -27.73,22.3 -7.76,9.69 -13.83,21.27 -18.2,34.76 -4.38,13.48 -6.56,28.01 -6.56,43.58 0,31.81 8.11,57.83 24.34,78.06 16.23,20.23 37.04,30.34 62.44,30.34zm41.91 60.18l-38.95 0c-19.75,0 -38.31,-4.07 -55.67,-12.19 -17.35,-8.13 -32.38,-19.62 -45.08,-34.5 -12.7,-14.87 -22.58,-32.85 -29.63,-53.95 -7.06,-21.09 -10.59,-43.74 -10.59,-67.94 0,-24.22 3.53,-46.86 10.59,-67.96 7.05,-21.09 16.93,-39.08 29.63,-53.94 12.7,-14.88 27.73,-26.37 45.08,-34.51 17.36,-8.12 35.92,-12.18 55.67,-12.18l38.95 0c19.75,0 38.31,4.06 55.67,12.18 17.35,8.14 32.38,19.63 45.08,34.51 12.7,14.86 22.58,32.85 29.63,53.94 7.06,21.1 10.59,43.74 10.59,67.96 0,24.2 -3.53,46.85 -10.59,67.94 -7.05,21.1 -16.93,39.08 -29.63,53.95 -12.7,14.88 -27.73,26.37 -45.08,34.5 -17.36,8.12 -35.92,12.19 -55.67,12.19zm415.29 0l-234.53 0 0 -337.17 51.23 0 0 276.99 183.3 0 0 60.18zm198.54 0l-58.85 0c-12.7,0 -25.04,-1.99 -37.04,-5.97 -11.99,-3.97 -22.86,-9.76 -32.6,-17.37 -9.73,-7.61 -18.83,-17.64 -27.3,-30.09 -8.47,-12.45 -14.75,-26.98 -18.84,-43.57 -4.09,-16.6 -6.14,-32.68 -6.14,-48.24l0 -191.93 51.23 0 0 187.77c0,9.68 1.2,19.63 3.59,29.83 2.4,10.21 6.42,19.63 12.07,28.27 5.64,8.65 13.12,16 22.44,22.05 9.31,6.05 20.32,9.07 33.02,9.07l57.57 0c20.88,0 38.03,-8.38 51.43,-25.15 13.41,-16.78 20.11,-38.3 20.11,-64.58l0 -187.26 51.22 0 0 191.93c0,15.56 -2.04,31.64 -6.13,48.24 -4.1,16.59 -10.38,31.12 -18.84,43.57 -8.47,12.45 -17.57,22.48 -27.31,30.09 -9.73,7.61 -20.6,13.4 -32.59,17.37 -12,3.98 -24.35,5.97 -37.04,5.97zm427.98 0l-130.81 0c-19.75,0 -38.31,-4.07 -55.67,-12.19 -17.35,-8.13 -32.38,-19.62 -45.08,-34.5 -12.7,-14.87 -22.58,-32.85 -29.63,-53.95 -7.06,-21.09 -10.59,-43.74 -10.59,-67.94 0,-24.22 3.53,-46.86 10.59,-67.96 7.05,-21.09 16.93,-39.08 29.63,-53.94 12.7,-14.88 27.73,-26.37 45.08,-34.51 17.36,-8.12 35.92,-12.18 55.67,-12.18l130.81 0 0 60.17 -133.77 0c-12.14,0 -23.57,2.59 -34.29,7.78 -10.73,5.19 -19.97,12.62 -27.73,22.3 -7.76,9.69 -13.83,21.27 -18.2,34.76 -4.38,13.48 -6.56,28.01 -6.56,43.58 0,19.7 3.67,38.2 11,55.49 7.34,17.3 17.99,30.44 31.96,39.43 13.97,8.99 28.58,13.48 43.82,13.48l133.77 0 0 60.18zm95.25 0l-51.23 0 0 -337.17 51.23 0 0 337.17zm178.22 -60.18l45.3 0c9.03,0 18.48,-1.73 28.36,-5.18 9.88,-3.46 19.61,-10.11 29.21,-19.97 9.59,-9.86 16.79,-22.31 21.59,-37.35 4.8,-15.04 7.19,-30.34 7.19,-45.9 0,-11.77 -1.41,-23.88 -4.23,-36.32 -2.82,-12.45 -8.18,-24.63 -16.09,-36.57 -7.9,-11.93 -17.85,-20.83 -29.84,-26.71 -11.99,-5.88 -24.06,-8.82 -36.19,-8.82l-45.3 0c-12.14,0 -23.57,2.59 -34.29,7.78 -10.73,5.19 -19.97,12.62 -27.73,22.3 -7.76,9.69 -13.83,21.27 -18.2,34.76 -4.38,13.48 -6.56,28.01 -6.56,43.58 0,31.81 8.11,57.83 24.34,78.06 16.23,20.23 37.04,30.34 62.44,30.34zm41.91 60.18l-38.95 0c-19.75,0 -38.31,-4.07 -55.67,-12.19 -17.35,-8.13 -32.38,-19.62 -45.08,-34.5 -12.7,-14.87 -22.58,-32.85 -29.63,-53.95 -7.06,-21.09 -10.59,-43.74 -10.59,-67.94 0,-24.22 3.53,-46.86 10.59,-67.96 7.05,-21.09 16.93,-39.08 29.63,-53.94 12.7,-14.88 27.73,-26.37 45.08,-34.51 17.36,-8.12 35.92,-12.18 55.67,-12.18l38.95 0c19.75,0 38.31,4.06 55.67,12.18 17.35,8.14 32.38,19.63 45.08,34.51 12.7,14.86 22.58,32.85 29.63,53.94 7.06,21.1 10.59,43.74 10.59,67.96 0,24.2 -3.53,46.85 -10.59,67.94 -7.05,21.1 -16.93,39.08 -29.63,53.95 -12.7,14.88 -27.73,26.37 -45.08,34.5 -17.36,8.12 -35.92,12.19 -55.67,12.19zm451.27 0l-10.58 0c-4.8,0 -9.17,-1.04 -13.13,-3.11 -3.95,-2.07 -9.31,-7.61 -16.08,-16.61l-181.19 -233.43 0 253.15 -49.53 0 0 -310.71c0,-8.31 2.05,-14.79 6.14,-19.46 4.09,-4.67 9.95,-7 17.57,-7l12.28 0c5.64,0 10.79,0.94 15.45,2.84 4.65,1.91 9.8,6.67 15.45,14.28l172.72 222.52 0 -239.64 49.53 0 0 313.31c0,15.91 -6.21,23.86 -18.63,23.86zm320.46 -145.24l-174.41 0 0 -50.84 174.41 0 0 50.84zm3.39 145.24l-256.54 0 0 -337.17 256.12 0 0 60.17 -204.89 0 0 216.82 205.31 0 0 60.18zm245.1 0l-206.58 0 0 -60.18 204.47 0c9.59,0 17.5,-3.88 23.7,-11.66 6.21,-7.78 9.32,-18.08 9.32,-30.87 0,-12.79 -3.11,-23.09 -9.32,-30.87 -6.2,-7.78 -14.11,-11.66 -23.7,-11.66l-127.42 0c-8.47,0 -17.29,-1.56 -26.46,-4.67 -9.17,-3.11 -18.21,-8.99 -27.1,-17.65 -8.89,-8.63 -15.59,-19.61 -20.1,-32.93 -4.52,-13.31 -6.78,-26.89 -6.78,-40.72 0,-28.36 7.55,-51.44 22.65,-69.25 15.1,-17.81 34.36,-26.71 57.79,-26.71l207.85 0 0 60.17 -205.74 0c-9.31,0 -16.86,3.63 -22.65,10.89 -5.78,7.26 -8.67,17.12 -8.67,29.57 0,12.1 2.89,21.87 8.67,29.31 5.79,7.44 13.34,11.15 22.65,11.15l127.42 0c11.58,0 21.81,2.07 30.7,6.22 8.89,4.16 16.86,9.68 23.91,16.61 7.06,6.91 13.41,16.77 19.05,29.56 5.65,12.8 8.47,28.02 8.47,45.65 0,14.18 -1.76,26.63 -5.29,37.35 -3.53,10.72 -8.19,20.23 -13.97,28.52 -5.79,8.31 -14.04,15.74 -24.77,22.32 -10.72,6.57 -23.42,9.85 -38.1,9.85zm506.73 0l-143.09 0c-19.75,0 -38.31,-4.07 -55.67,-12.19 -17.35,-8.13 -32.38,-19.62 -45.08,-34.5 -12.7,-14.87 -22.58,-32.85 -29.63,-53.95 -7.06,-21.09 -10.59,-43.74 -10.59,-67.94 0,-24.22 3.53,-46.86 10.59,-67.96 7.05,-21.09 16.93,-39.08 29.63,-53.94 12.7,-14.88 27.73,-26.37 45.08,-34.51 17.36,-8.12 35.92,-12.18 55.67,-12.18l143.09 0 0 60.17 -146.05 0c-12.14,0 -23.57,2.59 -34.29,7.78 -10.73,5.19 -19.97,12.62 -27.73,22.3 -7.76,9.69 -13.83,21.27 -18.2,34.76 -4.38,13.48 -6.56,28.01 -6.56,43.58 0,19.7 3.67,38.2 11,55.49 7.34,17.3 17.99,30.44 31.96,39.43 13.97,8.99 28.58,13.48 43.82,13.48l97.36 0 0 -85.06 -105.83 0 0 -50.84 154.52 0 0 196.08zm302.25 -145.24l-174.41 0 0 -50.84 174.41 0 0 50.84zm3.39 145.24l-256.54 0 0 -337.17 256.12 0 0 60.17 -204.89 0 0 216.82 205.31 0 0 60.18zm174.41 -60.18l45.3 0c9.03,0 18.48,-1.73 28.36,-5.18 9.88,-3.46 19.61,-10.11 29.21,-19.97 9.59,-9.86 16.79,-22.31 21.59,-37.35 4.8,-15.04 7.19,-30.34 7.19,-45.9 0,-11.77 -1.41,-23.88 -4.23,-36.32 -2.82,-12.45 -8.18,-24.63 -16.09,-36.57 -7.9,-11.93 -17.85,-20.83 -29.84,-26.71 -11.99,-5.88 -24.06,-8.82 -36.19,-8.82l-45.3 0c-12.14,0 -23.57,2.59 -34.29,7.78 -10.73,5.19 -19.97,12.62 -27.73,22.3 -7.76,9.69 -13.83,21.27 -18.2,34.76 -4.38,13.48 -6.56,28.01 -6.56,43.58 0,31.81 8.11,57.83 24.34,78.06 16.23,20.23 37.04,30.34 62.44,30.34zm41.91 60.18l-38.95 0c-19.75,0 -38.31,-4.07 -55.67,-12.19 -17.35,-8.13 -32.38,-19.62 -45.08,-34.5 -12.7,-14.87 -22.58,-32.85 -29.63,-53.95 -7.06,-21.09 -10.59,-43.74 -10.59,-67.94 0,-24.22 3.53,-46.86 10.59,-67.96 7.05,-21.09 16.93,-39.08 29.63,-53.94 12.7,-14.88 27.73,-26.37 45.08,-34.51 17.36,-8.12 35.92,-12.18 55.67,-12.18l38.95 0c19.75,0 38.31,4.06 55.67,12.18 17.35,8.14 32.38,19.63 45.08,34.51 12.7,14.86 22.58,32.85 29.63,53.94 7.06,21.1 10.59,43.74 10.59,67.96 0,24.2 -3.53,46.85 -10.59,67.94 -7.05,21.1 -16.93,39.08 -29.63,53.95 -12.7,14.88 -27.73,26.37 -45.08,34.5 -17.36,8.12 -35.92,12.19 -55.67,12.19zm377.18 0l-206.58 0 0 -60.18 204.47 0c9.59,0 17.5,-3.88 23.7,-11.66 6.21,-7.78 9.32,-18.08 9.32,-30.87 0,-12.79 -3.11,-23.09 -9.32,-30.87 -6.2,-7.78 -14.11,-11.66 -23.7,-11.66l-127.42 0c-8.47,0 -17.29,-1.56 -26.46,-4.67 -9.17,-3.11 -18.21,-8.99 -27.1,-17.65 -8.89,-8.63 -15.59,-19.61 -20.1,-32.93 -4.52,-13.31 -6.78,-26.89 -6.78,-40.72 0,-28.36 7.55,-51.44 22.65,-69.25 15.1,-17.81 34.36,-26.71 57.79,-26.71l207.85 0 0 60.17 -205.74 0c-9.31,0 -16.86,3.63 -22.65,10.89 -5.78,7.26 -8.67,17.12 -8.67,29.57 0,12.1 2.89,21.87 8.67,29.31 5.79,7.44 13.34,11.15 22.65,11.15l127.42 0c11.58,0 21.81,2.07 30.7,6.22 8.89,4.16 16.86,9.68 23.91,16.61 7.06,6.91 13.41,16.77 19.05,29.56 5.65,12.8 8.47,28.02 8.47,45.65 0,14.18 -1.76,26.63 -5.29,37.35 -3.53,10.72 -8.19,20.23 -13.97,28.52 -5.79,8.31 -14.04,15.74 -24.77,22.32 -10.72,6.57 -23.42,9.85 -38.1,9.85zm302.26 -92.86l-104.56 0 0 -56.02 104.98 0c6.77,0 14.18,-1.99 22.23,-5.96 8.04,-3.98 14.81,-11.25 20.32,-21.78 5.5,-10.55 8.25,-22.75 8.25,-36.58 0,-19.02 -4.73,-34.41 -14.18,-46.17 -9.45,-11.75 -21.66,-17.63 -36.62,-17.63l-130.81 0 0 277 -50.8 0 0 -337.17 181.19 0c14.39,0 27.94,2.93 40.64,8.81 12.7,5.88 23.63,14.26 32.81,25.16 9.17,10.89 16.29,23.87 21.37,38.9 5.08,15.05 7.62,31.38 7.62,49.03 0,13.13 -1.69,26.71 -5.08,40.72 -3.38,14 -9.73,27.75 -19.05,41.23 -9.31,13.49 -21.09,23.61 -35.34,30.35 -14.26,6.74 -28.58,10.11 -42.97,10.11zm418.24 92.86l-55.45 0 -28.37 -62.25 -154.51 0 22.44 -50.84 108.79 0 -69 -152.49 -120.23 265.58 -56.3 0 146.9 -319.54c2.54,-5.54 5.92,-9.85 10.16,-12.96 4.23,-3.11 8.74,-4.67 13.54,-4.67l11.86 0c4.79,0 9.24,1.56 13.33,4.67 4.09,3.11 7.41,7.42 9.95,12.96l146.89 319.54zm264.16 0l-130.81 0c-19.75,0 -38.31,-4.07 -55.67,-12.19 -17.35,-8.13 -32.38,-19.62 -45.08,-34.5 -12.7,-14.87 -22.58,-32.85 -29.63,-53.95 -7.06,-21.09 -10.59,-43.74 -10.59,-67.94 0,-24.22 3.53,-46.86 10.59,-67.96 7.05,-21.09 16.93,-39.08 29.63,-53.94 12.7,-14.88 27.73,-26.37 45.08,-34.51 17.36,-8.12 35.92,-12.18 55.67,-12.18l130.81 0 0 60.17 -133.77 0c-12.14,0 -23.57,2.59 -34.29,7.78 -10.73,5.19 -19.97,12.62 -27.73,22.3 -7.76,9.69 -13.83,21.27 -18.2,34.76 -4.38,13.48 -6.56,28.01 -6.56,43.58 0,19.7 3.67,38.2 11,55.49 7.34,17.3 17.99,30.44 31.96,39.43 13.97,8.99 28.58,13.48 43.82,13.48l133.77 0 0 60.18zm95.25 0l-51.23 0 0 -337.17 51.23 0 0 337.17zm383.53 0l-55.45 0 -28.37 -62.25 -154.51 0 22.44 -50.84 108.79 0 -69 -152.49 -120.23 265.58 -56.3 0 146.9 -319.54c2.54,-5.54 5.92,-9.85 10.16,-12.96 4.23,-3.11 8.74,-4.67 13.54,-4.67l11.86 0c4.79,0 9.24,1.56 13.33,4.67 4.09,3.11 7.41,7.42 9.95,12.96l146.89 319.54zm265.43 0l-234.53 0 0 -337.17 51.23 0 0 276.99 183.3 0 0 60.18zm287.86 -145.24l-174.41 0 0 -50.84 174.41 0 0 50.84zm3.39 145.24l-256.54 0 0 -337.17 256.12 0 0 60.17 -204.89 0 0 216.82 205.31 0 0 60.18zm245.1 0l-206.58 0 0 -60.18 204.47 0c9.59,0 17.5,-3.88 23.7,-11.66 6.21,-7.78 9.32,-18.08 9.32,-30.87 0,-12.79 -3.11,-23.09 -9.32,-30.87 -6.2,-7.78 -14.11,-11.66 -23.7,-11.66l-127.42 0c-8.47,0 -17.29,-1.56 -26.46,-4.67 -9.17,-3.11 -18.21,-8.99 -27.1,-17.65 -8.89,-8.63 -15.59,-19.61 -20.1,-32.93 -4.52,-13.31 -6.78,-26.89 -6.78,-40.72 0,-28.36 7.55,-51.44 22.65,-69.25 15.1,-17.81 34.36,-26.71 57.79,-26.71l207.85 0 0 60.17 -205.74 0c-9.31,0 -16.86,3.63 -22.65,10.89 -5.78,7.26 -8.67,17.12 -8.67,29.57 0,12.1 2.89,21.87 8.67,29.31 5.79,7.44 13.34,11.15 22.65,11.15l127.42 0c11.58,0 21.81,2.07 30.7,6.22 8.89,4.16 16.86,9.68 23.91,16.61 7.06,6.91 13.41,16.77 19.05,29.56 5.65,12.8 8.47,28.02 8.47,45.65 0,14.18 -1.76,26.63 -5.29,37.35 -3.53,10.72 -8.19,20.23 -13.97,28.52 -5.79,8.31 -14.04,15.74 -24.77,22.32 -10.72,6.57 -23.42,9.85 -38.1,9.85z"/>
 </g>
</svg>
